<?xml version="1.0" encoding="UTF-8"?>
<svg width="60px" height="60px" viewBox="0 0 60 60" version="1.1" xmlns="http://www.w3.org/2000/svg">
    <title>Nature Resource</title>
    <defs>
        <linearGradient x1="0%" y1="0%" x2="100%" y2="100%" id="natureResourceGradient">
            <stop stop-color="#065F46" offset="0%"></stop>
            <stop stop-color="#10B981" offset="100%"></stop>
        </linearGradient>
        <filter x="-20%" y="-20%" width="140%" height="140%" filterUnits="objectBoundingBox" id="natureResourceGlow">
            <feGaussianBlur stdDeviation="2" in="SourceGraphic"></feGaussianBlur>
        </filter>
    </defs>
    <g stroke="none" stroke-width="1" fill="none" fill-rule="evenodd">
        <!-- Resource Glow -->
        <circle cx="30" cy="30" r="25" fill="#10B981" filter="url(#natureResourceGlow)" opacity="0.5"></circle>
        
        <!-- Resource Base -->
        <circle cx="30" cy="30" r="25" fill="url(#natureResourceGradient)"></circle>
        
        <!-- Resource Border -->
        <circle cx="30" cy="30" r="25" stroke="#FFFFFF" stroke-width="1" opacity="0.5"></circle>
        
        <!-- Resource Inner Pattern - Leaf/Tree -->
        <g stroke="#FFFFFF" stroke-width="1.5" opacity="0.7">
            <path d="M30,15 L30,45"></path>
            <path d="M30,20 C25,25 20,25 20,30 C20,35 25,40 30,40 C35,40 40,35 40,30 C40,25 35,25 30,20 Z"></path>
        </g>
        
        <!-- Resource Highlight -->
        <path d="M30,5 C43.8071,5 55,16.1929 55,30 C55,30 55,30 55,30 C55,16.1929 43.8071,5 30,5 Z" fill="#FFFFFF" opacity="0.2"></path>
    </g>
</svg>
