<?xml version="1.0" encoding="UTF-8"?>
<svg width="200px" height="200px" viewBox="0 0 200 200" version="1.1" xmlns="http://www.w3.org/2000/svg">
    <title>Void Realm</title>
    <defs>
        <linearGradient x1="0%" y1="0%" x2="100%" y2="100%" id="voidGradient">
            <stop stop-color="#6D28D9" offset="0%"></stop>
            <stop stop-color="#8B5CF6" offset="100%"></stop>
        </linearGradient>
        <filter x="-20%" y="-20%" width="140%" height="140%" filterUnits="objectBoundingBox" id="voidGlow">
            <feGaussianBlur stdDeviation="5" in="SourceGraphic"></feGaussianBlur>
        </filter>
        <radialGradient cx="50%" cy="50%" fx="50%" fy="50%" r="70%" id="voidRadial">
            <stop stop-color="#C4B5FD" stop-opacity="0.6" offset="0%"></stop>
            <stop stop-color="#6D28D9" stop-opacity="0" offset="100%"></stop>
        </radialGradient>
    </defs>
    <g stroke="none" stroke-width="1" fill="none" fill-rule="evenodd">
        <!-- Hexagon Base -->
        <path d="M100,20 L170,60 L170,140 L100,180 L30,140 L30,60 Z" fill="url(#voidGradient)" fill-rule="nonzero"></path>
        
        <!-- Inner Hexagon -->
        <path d="M100,40 L150,70 L150,130 L100,160 L50,130 L50,70 Z" stroke="#FFFFFF" stroke-width="2" opacity="0.3"></path>
        
        <!-- Void Pattern - Stars and Nebula -->
        <circle cx="100" cy="100" r="60" fill="url(#voidRadial)"></circle>
        
        <!-- Stars -->
        <g fill="#FFFFFF">
            <circle cx="70" cy="60" r="1.5"></circle>
            <circle cx="90" cy="50" r="1"></circle>
            <circle cx="110" cy="55" r="1.5"></circle>
            <circle cx="130" cy="65" r="1"></circle>
            <circle cx="140" cy="90" r="1.5"></circle>
            <circle cx="135" cy="120" r="1"></circle>
            <circle cx="115" cy="140" r="1.5"></circle>
            <circle cx="90" cy="145" r="1"></circle>
            <circle cx="65" cy="130" r="1.5"></circle>
            <circle cx="55" cy="100" r="1"></circle>
            <circle cx="60" cy="80" r="1.5"></circle>
            <circle cx="80" cy="70" r="1"></circle>
            <circle cx="100" cy="65" r="1.5"></circle>
            <circle cx="120" cy="75" r="1"></circle>
            <circle cx="125" cy="100" r="1.5"></circle>
            <circle cx="115" cy="120" r="1"></circle>
            <circle cx="95" cy="130" r="1.5"></circle>
            <circle cx="75" cy="120" r="1"></circle>
            <circle cx="70" cy="95" r="1.5"></circle>
            <circle cx="85" cy="85" r="1"></circle>
        </g>
        
        <!-- Swirling Void Lines -->
        <g stroke="#FFFFFF" stroke-width="1" opacity="0.4">
            <path d="M100,70 C120,80 130,100 120,120 C110,140 80,140 70,120 C60,100 80,80 100,70 Z"></path>
            <path d="M100,80 C115,85 120,100 115,115 C105,130 85,130 75,115 C70,100 85,85 100,80 Z"></path>
            <path d="M100,90 C110,95 115,105 110,115 C100,125 90,125 80,115 C75,105 90,95 100,90 Z"></path>
        </g>
        
        <!-- Glow Effect -->
        <circle cx="100" cy="100" r="30" fill="#8B5CF6" filter="url(#voidGlow)" opacity="0.6"></circle>
        
        <!-- Center Icon -->
        <g transform="translate(80, 80)">
            <circle cx="20" cy="20" r="20" fill="#FFFFFF" opacity="0.9"></circle>
            <path d="M20,5 C25,10 30,15 30,20 C30,25 25,30 20,35 C15,30 10,25 10,20 C10,15 15,10 20,5 Z" fill="#6D28D9"></path>
            <circle cx="20" cy="20" r="5" fill="#FFFFFF"></circle>
        </g>
    </g>
</svg>
