<?xml version="1.0" encoding="UTF-8"?>
<svg width="120px" height="120px" viewBox="0 0 120 120" version="1.1" xmlns="http://www.w3.org/2000/svg">
    <title>Shadow Broker Avatar Frame</title>
    <defs>
        <linearGradient x1="0%" y1="0%" x2="100%" y2="100%" id="shadowBrokerFrameGradient">
            <stop stop-color="#374151" offset="0%"></stop>
            <stop stop-color="#6B7280" offset="100%"></stop>
        </linearGradient>
        <filter x="-10%" y="-10%" width="120%" height="120%" filterUnits="objectBoundingBox" id="shadowBrokerFrameGlow">
            <feGaussianBlur stdDeviation="2" in="SourceGraphic"></feGaussianBlur>
        </filter>
    </defs>
    <g stroke="none" stroke-width="1" fill="none" fill-rule="evenodd">
        <!-- Outer Glow -->
        <circle cx="60" cy="60" r="55" stroke="#6B7280" stroke-width="6" opacity="0.4" filter="url(#shadowBrokerFrameGlow)"></circle>
        
        <!-- Main Frame -->
        <circle cx="60" cy="60" r="55" stroke="url(#shadowBrokerFrameGradient)" stroke-width="6"></circle>
        
        <!-- Inner Border -->
        <circle cx="60" cy="60" r="50" stroke="#FFFFFF" stroke-width="1" opacity="0.5"></circle>
        
        <!-- Shadow Pattern -->
        <g stroke="#FFFFFF" stroke-width="1" opacity="0.3">
            <path d="M30,30 L90,90 M90,30 L30,90"></path>
            <path d="M60,20 L60,100 M20,60 L100,60"></path>
        </g>
        
        <!-- Corner Decorations -->
        <g fill="url(#shadowBrokerFrameGradient)">
            <path d="M25,25 L35,25 L25,35 Z"></path>
            <path d="M85,25 L95,25 L95,35 Z"></path>
            <path d="M25,85 L25,95 L35,95 Z"></path>
            <path d="M95,85 L85,95 L95,95 Z"></path>
        </g>
        
        <!-- Decorative Elements -->
        <path d="M60,10 C87.6142,10 110,32.3858 110,60 C110,87.6142 87.6142,110 60,110 C32.3858,110 10,87.6142 10,60 C10,32.3858 32.3858,10 60,10 Z" stroke="#FFFFFF" stroke-width="1" stroke-dasharray="3,3" opacity="0.3"></path>
    </g>
</svg>
