<?xml version="1.0" encoding="UTF-8"?>
<svg width="120px" height="120px" viewBox="0 0 120 120" version="1.1" xmlns="http://www.w3.org/2000/svg">
    <title>Techno Monk Avatar Frame</title>
    <defs>
        <linearGradient x1="0%" y1="0%" x2="100%" y2="100%" id="technoMonkFrameGradient">
            <stop stop-color="#1E40AF" offset="0%"></stop>
            <stop stop-color="#3B82F6" offset="100%"></stop>
        </linearGradient>
        <filter x="-10%" y="-10%" width="120%" height="120%" filterUnits="objectBoundingBox" id="technoMonkFrameGlow">
            <feGaussianBlur stdDeviation="2" in="SourceGraphic"></feGaussianBlur>
        </filter>
    </defs>
    <g stroke="none" stroke-width="1" fill="none" fill-rule="evenodd">
        <!-- Outer Glow -->
        <circle cx="60" cy="60" r="55" stroke="#3B82F6" stroke-width="6" opacity="0.4" filter="url(#technoMonkFrameGlow)"></circle>
        
        <!-- Main Frame -->
        <circle cx="60" cy="60" r="55" stroke="url(#technoMonkFrameGradient)" stroke-width="6"></circle>
        
        <!-- Inner Border -->
        <circle cx="60" cy="60" r="50" stroke="#FFFFFF" stroke-width="1" opacity="0.5"></circle>
        
        <!-- Tech Pattern -->
        <g stroke="#FFFFFF" stroke-width="1" opacity="0.5">
            <path d="M30,30 L90,30 M30,60 L90,60 M30,90 L90,90"></path>
            <path d="M30,30 L30,90 M60,30 L60,90 M90,30 L90,90"></path>
        </g>
        
        <!-- Corner Decorations -->
        <g fill="url(#technoMonkFrameGradient)">
            <rect x="20" y="20" width="10" height="10" rx="2"></rect>
            <rect x="90" y="20" width="10" height="10" rx="2"></rect>
            <rect x="20" y="90" width="10" height="10" rx="2"></rect>
            <rect x="90" y="90" width="10" height="10" rx="2"></rect>
        </g>
        
        <!-- Decorative Elements -->
        <path d="M60,10 C87.6142,10 110,32.3858 110,60 C110,87.6142 87.6142,110 60,110 C32.3858,110 10,87.6142 10,60 C10,32.3858 32.3858,10 60,10 Z" stroke="#FFFFFF" stroke-width="1" stroke-dasharray="3,3" opacity="0.3"></path>
    </g>
</svg>
