<?xml version="1.0" encoding="UTF-8"?>
<svg width="120px" height="120px" viewBox="0 0 120 120" version="1.1" xmlns="http://www.w3.org/2000/svg">
    <title>Bio-Smith Avatar Frame</title>
    <defs>
        <linearGradient x1="0%" y1="0%" x2="100%" y2="100%" id="bioSmithFrameGradient">
            <stop stop-color="#065F46" offset="0%"></stop>
            <stop stop-color="#10B981" offset="100%"></stop>
        </linearGradient>
        <filter x="-10%" y="-10%" width="120%" height="120%" filterUnits="objectBoundingBox" id="bioSmithFrameGlow">
            <feGaussianBlur stdDeviation="2" in="SourceGraphic"></feGaussianBlur>
        </filter>
    </defs>
    <g stroke="none" stroke-width="1" fill="none" fill-rule="evenodd">
        <!-- Outer Glow -->
        <circle cx="60" cy="60" r="55" stroke="#10B981" stroke-width="6" opacity="0.4" filter="url(#bioSmithFrameGlow)"></circle>
        
        <!-- Main Frame -->
        <circle cx="60" cy="60" r="55" stroke="url(#bioSmithFrameGradient)" stroke-width="6"></circle>
        
        <!-- Inner Border -->
        <circle cx="60" cy="60" r="50" stroke="#FFFFFF" stroke-width="1" opacity="0.5"></circle>
        
        <!-- Bio Pattern - DNA Helix -->
        <g stroke="#FFFFFF" stroke-width="1.5" opacity="0.5">
            <path d="M40,20 C50,40 70,40 80,60 C70,80 50,80 40,100"></path>
            <path d="M80,20 C70,40 50,40 40,60 C50,80 70,80 80,100"></path>
            
            <!-- Connecting Lines -->
            <path d="M40,30 L80,30" stroke-width="1"></path>
            <path d="M40,50 L80,50" stroke-width="1"></path>
            <path d="M40,70 L80,70" stroke-width="1"></path>
            <path d="M40,90 L80,90" stroke-width="1"></path>
        </g>
        
        <!-- Corner Decorations -->
        <g fill="url(#bioSmithFrameGradient)">
            <path d="M20,30 C20,20 30,20 30,20 C30,30 20,30 20,30 Z"></path>
            <path d="M90,30 C90,20 100,20 100,20 C100,30 90,30 90,30 Z"></path>
            <path d="M20,90 C20,100 30,100 30,100 C30,90 20,90 20,90 Z"></path>
            <path d="M90,90 C90,100 100,100 100,100 C100,90 90,90 90,90 Z"></path>
        </g>
        
        <!-- Decorative Elements -->
        <path d="M60,10 C87.6142,10 110,32.3858 110,60 C110,87.6142 87.6142,110 60,110 C32.3858,110 10,87.6142 10,60 C10,32.3858 32.3858,10 60,10 Z" stroke="#FFFFFF" stroke-width="1" stroke-dasharray="3,3" opacity="0.3"></path>
    </g>
</svg>
