<?xml version="1.0" encoding="UTF-8"?>
<svg width="800px" height="600px" viewBox="0 0 800 600" version="1.1" xmlns="http://www.w3.org/2000/svg">
    <title>Game Board Background</title>
    <defs>
        <linearGradient x1="0%" y1="0%" x2="100%" y2="100%" id="bgGradient">
            <stop stop-color="#111827" offset="0%"></stop>
            <stop stop-color="#1F2937" offset="100%"></stop>
        </linearGradient>
        <radialGradient cx="50%" cy="50%" fx="50%" fy="50%" r="70%" id="glowGradient">
            <stop stop-color="#4F46E5" stop-opacity="0.2" offset="0%"></stop>
            <stop stop-color="#111827" stop-opacity="0" offset="100%"></stop>
        </radialGradient>
    </defs>
    <g stroke="none" stroke-width="1" fill="none" fill-rule="evenodd">
        <!-- Background -->
        <rect fill="url(#bgGradient)" x="0" y="0" width="800" height="600"></rect>
        
        <!-- Grid Lines -->
        <g stroke="#1F2937" stroke-width="1" opacity="0.5">
            <!-- Horizontal Lines -->
            <line x1="0" y1="50" x2="800" y2="50"></line>
            <line x1="0" y1="100" x2="800" y2="100"></line>
            <line x1="0" y1="150" x2="800" y2="150"></line>
            <line x1="0" y1="200" x2="800" y2="200"></line>
            <line x1="0" y1="250" x2="800" y2="250"></line>
            <line x1="0" y1="300" x2="800" y2="300"></line>
            <line x1="0" y1="350" x2="800" y2="350"></line>
            <line x1="0" y1="400" x2="800" y2="400"></line>
            <line x1="0" y1="450" x2="800" y2="450"></line>
            <line x1="0" y1="500" x2="800" y2="500"></line>
            <line x1="0" y1="550" x2="800" y2="550"></line>
            
            <!-- Vertical Lines -->
            <line x1="50" y1="0" x2="50" y2="600"></line>
            <line x1="100" y1="0" x2="100" y2="600"></line>
            <line x1="150" y1="0" x2="150" y2="600"></line>
            <line x1="200" y1="0" x2="200" y2="600"></line>
            <line x1="250" y1="0" x2="250" y2="600"></line>
            <line x1="300" y1="0" x2="300" y2="600"></line>
            <line x1="350" y1="0" x2="350" y2="600"></line>
            <line x1="400" y1="0" x2="400" y2="600"></line>
            <line x1="450" y1="0" x2="450" y2="600"></line>
            <line x1="500" y1="0" x2="500" y2="600"></line>
            <line x1="550" y1="0" x2="550" y2="600"></line>
            <line x1="600" y1="0" x2="600" y2="600"></line>
            <line x1="650" y1="0" x2="650" y2="600"></line>
            <line x1="700" y1="0" x2="700" y2="600"></line>
            <line x1="750" y1="0" x2="750" y2="600"></line>
        </g>
        
        <!-- Center Glow -->
        <circle cx="400" cy="300" r="200" fill="url(#glowGradient)"></circle>
        
        <!-- Decorative Elements -->
        <circle cx="400" cy="300" r="5" fill="#4F46E5" opacity="0.8"></circle>
        <circle cx="400" cy="300" r="50" stroke="#4F46E5" stroke-width="1" opacity="0.3" fill="none"></circle>
        <circle cx="400" cy="300" r="100" stroke="#4F46E5" stroke-width="1" opacity="0.2" fill="none"></circle>
        <circle cx="400" cy="300" r="150" stroke="#4F46E5" stroke-width="1" opacity="0.1" fill="none"></circle>
    </g>
</svg>
