<?xml version="1.0" encoding="UTF-8"?>
<svg width="200px" height="200px" viewBox="0 0 200 200" version="1.1" xmlns="http://www.w3.org/2000/svg">
    <title>Nature Realm</title>
    <defs>
        <linearGradient x1="0%" y1="0%" x2="100%" y2="100%" id="natureGradient">
            <stop stop-color="#065F46" offset="0%"></stop>
            <stop stop-color="#10B981" offset="100%"></stop>
        </linearGradient>
        <filter x="-20%" y="-20%" width="140%" height="140%" filterUnits="objectBoundingBox" id="natureGlow">
            <feGaussianBlur stdDeviation="5" in="SourceGraphic"></feGaussianBlur>
        </filter>
    </defs>
    <g stroke="none" stroke-width="1" fill="none" fill-rule="evenodd">
        <!-- Hexagon Base -->
        <path d="M100,20 L170,60 L170,140 L100,180 L30,140 L30,60 Z" fill="url(#natureGradient)" fill-rule="nonzero"></path>
        
        <!-- Inner Hexagon -->
        <path d="M100,40 L150,70 L150,130 L100,160 L50,130 L50,70 Z" stroke="#FFFFFF" stroke-width="2" opacity="0.3"></path>
        
        <!-- Nature Pattern -->
        <g stroke="#FFFFFF" stroke-width="1.5" opacity="0.6">
            <!-- Stylized Tree -->
            <path d="M100,50 L100,150" stroke-width="2"></path>
            <!-- Branches -->
            <path d="M100,70 L70,60 M100,70 L130,60" stroke-linecap="round"></path>
            <path d="M100,90 L60,80 M100,90 L140,80" stroke-linecap="round"></path>
            <path d="M100,110 L50,100 M100,110 L150,100" stroke-linecap="round"></path>
            <!-- Roots -->
            <path d="M100,150 L70,160 M100,150 L130,160" stroke-linecap="round"></path>
        </g>
        
        <!-- Glow Effect -->
        <circle cx="100" cy="100" r="30" fill="#10B981" filter="url(#natureGlow)" opacity="0.4"></circle>
        
        <!-- Center Icon -->
        <g transform="translate(80, 80)">
            <circle cx="20" cy="20" r="20" fill="#FFFFFF" opacity="0.9"></circle>
            <path d="M20,10 C15,15 10,15 10,20 C10,25 15,30 20,30 C25,30 30,25 30,20 C30,15 25,15 20,10 Z" fill="#10B981"></path>
        </g>
    </g>
</svg>
