<?xml version="1.0" encoding="UTF-8"?>
<svg width="200px" height="200px" viewBox="0 0 200 200" version="1.1" xmlns="http://www.w3.org/2000/svg">
    <title>Tech Realm</title>
    <defs>
        <linearGradient x1="0%" y1="0%" x2="100%" y2="100%" id="techGradient">
            <stop stop-color="#1E40AF" offset="0%"></stop>
            <stop stop-color="#3B82F6" offset="100%"></stop>
        </linearGradient>
        <filter x="-20%" y="-20%" width="140%" height="140%" filterUnits="objectBoundingBox" id="techGlow">
            <feGaussianBlur stdDeviation="5" in="SourceGraphic"></feGaussianBlur>
        </filter>
    </defs>
    <g stroke="none" stroke-width="1" fill="none" fill-rule="evenodd">
        <!-- Hexagon Base -->
        <path d="M100,20 L170,60 L170,140 L100,180 L30,140 L30,60 Z" fill="url(#techGradient)" fill-rule="nonzero"></path>
        
        <!-- Inner Hexagon -->
        <path d="M100,40 L150,70 L150,130 L100,160 L50,130 L50,70 Z" stroke="#FFFFFF" stroke-width="2" opacity="0.3"></path>
        
        <!-- Tech Circuit Pattern -->
        <g stroke="#FFFFFF" stroke-width="1.5" opacity="0.6">
            <path d="M100,40 L100,160"></path>
            <path d="M50,70 L150,70"></path>
            <path d="M50,130 L150,130"></path>
            <path d="M75,55 L125,55 L125,145 L75,145 Z"></path>
            <path d="M75,55 L75,145"></path>
            <path d="M125,55 L125,145"></path>
            <path d="M75,100 L125,100"></path>
        </g>
        
        <!-- Glow Effect -->
        <circle cx="100" cy="100" r="30" fill="#3B82F6" filter="url(#techGlow)" opacity="0.4"></circle>
        
        <!-- Center Icon -->
        <g transform="translate(80, 80)">
            <rect x="0" y="0" width="40" height="40" rx="5" fill="#FFFFFF" opacity="0.9"></rect>
            <path d="M10,10 L30,10 M10,20 L30,20 M10,30 L30,30" stroke="#3B82F6" stroke-width="3" stroke-linecap="round"></path>
        </g>
    </g>
</svg>
